<svg xmlns="http://www.w3.org/2000/svg" width="22" height="17" viewBox="0 0 22 17" fill="none">
<g clip-path="url(#clip0_159_57)">
<path d="M1.4524 16.339C0.477783 16.3377 -0.171535 15.5475 0.04598 14.6434C0.197014 14.0162 0.752097 13.6147 1.49242 13.6134C3.44683 13.6095 15.9459 13.6115 20.2413 13.6121C20.4233 13.6121 20.6079 13.6076 20.7874 13.6319C21.5193 13.7323 22.046 14.3538 21.9976 15.0462C21.9466 15.7828 21.3734 16.3332 20.6202 16.3371C19.0847 16.346 4.63122 16.3422 1.45305 16.339H1.4524Z" fill="#FAFAFA"/>
<path d="M20.5505 0.00226295C21.2573 0.00226295 21.8098 0.415294 21.9563 1.0374C22.1655 1.92548 21.5284 2.70934 20.5693 2.72661C19.8606 2.73939 7.18983 2.7298 1.56349 2.7298C0.781854 2.7298 0.228062 2.36281 0.0537918 1.73367C-0.192768 0.847507 0.460422 0.00737789 1.41568 0.00354169C3.28424 -0.00349135 17.3724 0.000344849 20.5505 0.00226295Z" fill="#FAFAFA"/>
<path d="M1.49682 9.52656C0.71389 9.52656 0.173653 9.12184 0.0355274 8.44731C-0.13487 7.61486 0.46023 6.84442 1.31932 6.82204C2.14549 6.80094 14.9021 6.81437 20.4529 6.81501C21.3094 6.81501 21.8554 7.23124 21.9781 7.9729C22.1033 8.73119 21.534 9.46966 20.7588 9.51378C20.2238 9.54383 4.65304 9.52848 1.49682 9.52656Z" fill="#FAFAFA"/>
</g>
<defs>
<clipPath id="clip0_159_57">
<rect width="22" height="16.3429" fill="white"/>
</clipPath>
</defs>
</svg>