<svg width="18" height="18" viewBox="0 0 18 18" fill="none" xmlns="http://www.w3.org/2000/svg">
<g clip-path="url(#clip0_1_1784)">
<path d="M0 14.3503C0 10.6501 0 6.94992 0 3.24973C0.012457 3.19793 0.0268809 3.14677 0.0367153 3.09465C0.320931 1.59108 1.20177 0.60104 2.69038 0.144468C2.9228 0.0730385 3.16932 0.0469763 3.40928 0C7.10278 0 10.7959 0 14.4894 0C14.6556 0.0283145 14.8228 0.0518027 14.9877 0.085587C16.6855 0.434692 17.8922 1.89192 17.9043 3.61653C17.9115 4.61366 17.9056 5.61078 17.9056 6.6079C17.9056 9.05774 17.9092 11.5076 17.904 13.9574C17.9007 15.5784 16.8864 16.9456 15.3342 17.4273C15.0811 17.5058 14.815 17.5434 14.555 17.6H3.34372C3.30766 17.5901 3.27193 17.5762 3.23521 17.5708C1.7984 17.3594 0.797247 16.5936 0.248156 15.2776C0.126209 14.9842 0.0806426 14.6602 0 14.3503ZM2.84675 8.7997C2.8438 8.7997 2.84052 8.7997 2.83757 8.7997C2.83757 9.72217 2.83298 10.6443 2.83855 11.5668C2.84937 13.3281 4.31274 14.7943 6.09081 14.8062C7.99739 14.8188 9.90429 14.8178 11.8109 14.8062C13.588 14.7956 15.0697 13.3184 15.072 11.5732C15.0746 9.73375 15.0733 7.8946 15.07 6.05512C15.07 5.88427 15.0566 5.71116 15.0264 5.54321C14.736 3.92188 13.3798 2.80088 11.7024 2.79413C10.8336 2.79059 9.96493 2.79284 9.09622 2.7938C8.0636 2.79477 7.03033 2.77128 5.99869 2.80442C4.337 2.85751 2.93395 4.19634 2.85494 5.82442C2.80676 6.81414 2.84609 7.80805 2.84609 8.80002L2.84675 8.7997Z" fill="currentColor" fill-opacity="0.5"/>
<path d="M3.95035 8.79005C3.95035 7.90522 3.95035 7.02072 3.95035 6.13589C3.95101 4.84308 4.92103 3.89036 6.23788 3.89004C8.04613 3.88971 9.85438 3.89004 11.6623 3.89004C12.9772 3.89036 13.9501 4.82377 13.9564 6.11272C13.9649 7.92485 13.9646 9.7373 13.9564 11.5494C13.9508 12.7325 12.9916 13.6981 11.7842 13.709C9.89437 13.7261 8.00384 13.7258 6.11396 13.7081C4.88956 13.6965 3.95757 12.7225 3.95134 11.4922C3.94675 10.5912 3.95068 9.69097 3.95035 8.79005ZM8.96861 6.04805C7.45113 6.04837 6.19723 7.27394 6.19592 8.7582C6.1946 10.2788 7.43147 11.5124 8.95648 11.5118C10.5117 11.5108 11.7623 10.2959 11.7633 8.78394C11.7646 7.26268 10.5235 6.04773 8.96861 6.04805ZM12.5674 5.79933C12.5684 5.48948 12.3235 5.25364 12.0036 5.25717C11.6961 5.26039 11.4535 5.50074 11.4551 5.8003C11.4568 6.10211 11.6964 6.33988 12.0032 6.34439C12.316 6.34921 12.5664 6.10725 12.5674 5.79933Z" fill="currentColor" fill-opacity="0.5"/>
<path d="M7.31057 8.77655C7.31516 7.87338 8.06356 7.1417 8.98145 7.14331C9.90818 7.14524 10.6517 7.88432 10.6461 8.7981C10.6405 9.69033 9.87245 10.4281 8.95883 10.4185C8.05307 10.4091 7.30598 9.66491 7.31057 8.77655Z" fill="currentColor" fill-opacity="0.5"/>
</g>
<defs>
<clipPath id="clip0_1_1784">
<rect width="17.9079" height="17.6" fill="white"/>
</clipPath>
</defs>
</svg>
