<svg width="168" height="38" viewBox="0 0 168 38" fill="none" xmlns="http://www.w3.org/2000/svg">
<path d="M68.1554 28.223H62.222V10.6847H68.1554C69.6739 10.6847 70.9282 10.8426 71.9122 11.1613C72.8961 11.48 73.6598 12.0034 74.2062 12.7344C74.7496 13.4654 75.1256 14.3251 75.3341 15.3134C75.5426 16.3018 75.6455 17.5883 75.6455 19.1702C75.6455 20.7521 75.5515 22.0621 75.3605 23.1031C75.1696 24.144 74.8113 25.0709 74.2855 25.8897C73.7597 26.7055 72.9931 27.299 71.9915 27.6704C70.9898 28.0417 69.7121 28.226 68.1583 28.226L68.1554 28.223ZM71.9122 21.258C71.9474 20.7083 71.965 19.948 71.965 18.9743C71.965 18.0006 71.9298 17.2258 71.8622 16.6409C71.7917 16.0561 71.6302 15.524 71.3688 15.0415C71.1103 14.559 70.7255 14.2286 70.2173 14.0473C69.7063 13.866 69.0219 13.7754 68.1583 13.7754H65.7997V25.1236H68.1583C69.4536 25.1236 70.3936 24.7961 70.981 24.144C71.4833 23.6118 71.7917 22.6469 71.9151 21.2551L71.9122 21.258Z" fill="#FAFAFA"/>
<path d="M81.926 24.9588C82.3313 25.3126 82.9159 25.4881 83.6737 25.4881C85.2804 25.4881 86.7138 25.4354 87.9739 25.3331L88.6994 25.2541L88.7522 27.8068C86.7666 28.2893 84.969 28.529 83.3623 28.529C81.409 28.529 79.9933 28.0115 79.1121 26.9822C78.2309 25.953 77.7903 24.2746 77.7903 21.9529C77.7903 17.3271 79.6995 15.0142 83.5151 15.0142C87.3306 15.0142 89.1635 16.9557 89.1635 20.8418L88.905 23.2395H81.2886C81.3062 24.0319 81.5177 24.6021 81.923 24.9559L81.926 24.9588ZM85.7474 20.6137C85.7474 19.5815 85.5829 18.8651 85.2539 18.4616C84.925 18.0581 84.3522 17.8563 83.5297 17.8563C82.7073 17.8563 82.1316 18.0669 81.7938 18.4879C81.456 18.909 81.2798 19.6195 81.2622 20.6166H85.7445L85.7474 20.6137Z" fill="#FAFAFA"/>
<path d="M90.2798 15.3221H93.9073L95.9811 25.2756H96.7066L98.8831 15.3221H102.408L99.3002 28.2171H93.3933L90.2857 15.3221H90.2798Z" fill="#FAFAFA"/>
<path d="M110.128 13.4662C108.245 13.4662 107.305 14.0861 107.305 15.323C107.305 15.8727 107.537 16.2938 108.004 16.5862C108.471 16.8786 109.564 17.2997 111.282 17.8494C113 18.3991 114.205 19.0219 114.895 19.7208C115.585 20.4167 115.932 21.4869 115.932 22.9313C115.932 24.7706 115.371 26.1624 114.249 27.1098C113.127 28.0543 111.658 28.5279 109.843 28.5279C108.494 28.5279 106.847 28.3203 104.893 27.9081L103.959 27.7268L104.323 24.9665C106.638 25.2764 108.409 25.4314 109.634 25.4314C111.464 25.4314 112.38 24.6741 112.38 23.1623C112.38 22.6126 112.169 22.1828 111.746 21.8728C111.323 21.5629 110.48 21.2266 109.22 20.867C107.217 20.2997 105.804 19.6243 104.984 18.8435C104.165 18.0628 103.754 16.9751 103.754 15.5803C103.754 13.8259 104.288 12.5218 105.36 11.6592C106.43 10.7995 107.898 10.3697 109.763 10.3697C111.041 10.3697 112.665 10.5422 114.633 10.8843L115.567 11.0656L115.283 13.8785C112.848 13.6037 111.129 13.4662 110.128 13.4662Z" fill="#FAFAFA"/>
<path d="M118.492 33.6378V15.3275H121.938V16.0234C123.06 15.3538 124.044 15.0175 124.893 15.0175C126.638 15.0175 127.924 15.538 128.752 16.579C129.581 17.6199 129.995 19.3861 129.995 21.8773C129.995 24.3686 129.537 26.1026 128.623 27.0733C127.707 28.0441 126.206 28.5295 124.114 28.5295C123.545 28.5295 122.931 28.4769 122.276 28.3745L121.964 28.3219V33.6349H118.492V33.6378ZM124.217 18.1112C123.577 18.1112 122.931 18.2398 122.273 18.4972L121.961 18.6258V25.3832C122.74 25.4856 123.368 25.5382 123.853 25.5382C124.855 25.5382 125.542 25.2458 125.912 24.661C126.282 24.0762 126.47 23.0791 126.47 21.6697C126.47 19.2954 125.718 18.1112 124.217 18.1112Z" fill="#FAFAFA"/>
<path d="M142.509 19.348V24.7136C142.544 25.1259 142.612 25.4154 142.717 25.5791C142.823 25.7429 143.037 25.8598 143.366 25.9271L143.264 28.5324C142.382 28.5324 141.678 28.471 141.152 28.3511C140.626 28.2312 140.094 27.9885 139.56 27.6289C138.317 28.2312 137.045 28.5324 135.75 28.5324C133.071 28.5324 131.735 27.123 131.735 24.3013C131.735 22.927 132.105 21.9504 132.848 21.3744C133.591 20.7983 134.731 20.4591 136.267 20.3568L139.04 20.1492V19.3509C139.04 18.8188 138.919 18.4533 138.676 18.2544C138.435 18.0585 138.044 17.9591 137.51 17.9591L132.639 18.1667L132.537 15.769C134.384 15.269 136.141 15.0204 137.809 15.0204C139.477 15.0204 140.676 15.3655 141.41 16.0526C142.145 16.7398 142.512 17.8421 142.512 19.3539L142.509 19.348ZM136.678 22.7516C135.712 22.8364 135.227 23.3539 135.227 24.2984C135.227 25.2429 135.65 25.7166 136.496 25.7166C137.151 25.7166 137.868 25.6142 138.646 25.4066L139.034 25.3043V22.544L136.675 22.7516H136.678Z" fill="#FAFAFA"/>
<path d="M150.67 15.0175C151.569 15.0175 152.717 15.155 154.116 15.4298L154.815 15.5848L154.712 18.3188C153.346 18.1814 152.336 18.1112 151.681 18.1112C150.488 18.1112 149.698 18.3656 149.31 18.8714C148.922 19.3802 148.729 20.3364 148.729 21.7487C148.729 23.161 148.922 24.1259 149.31 24.6493C149.698 25.1727 150.497 25.4359 151.707 25.4359L154.712 25.2283L154.815 27.9886C152.967 28.3511 151.56 28.5295 150.591 28.5295C148.673 28.5295 147.295 27.9915 146.458 26.9184C145.621 25.8452 145.201 24.1201 145.201 21.7487C145.201 19.3773 145.633 17.6609 146.496 16.6024C147.36 15.5439 148.749 15.0175 150.667 15.0175H150.67Z" fill="#FAFAFA"/>
<path d="M160.763 24.9588C161.168 25.3126 161.752 25.4881 162.51 25.4881C164.117 25.4881 165.55 25.4354 166.81 25.3331L167.536 25.2541L167.589 27.8068C165.603 28.2893 163.806 28.529 162.199 28.529C160.246 28.529 158.83 28.0115 157.949 26.9822C157.067 25.953 156.627 24.2746 156.627 21.9529C156.627 17.3271 158.536 15.0142 162.352 15.0142C166.167 15.0142 168 16.9557 168 20.8418L167.742 23.2395H160.125C160.143 24.0319 160.354 24.6021 160.76 24.9559L160.763 24.9588ZM164.584 20.6137C164.584 19.5815 164.42 18.8651 164.091 18.4616C163.762 18.0581 163.189 17.8563 162.366 17.8563C161.544 17.8563 160.968 18.0669 160.63 18.4879C160.293 18.909 160.116 19.6195 160.099 20.6166H164.581L164.584 20.6137Z" fill="#FAFAFA"/>
<path d="M16.118 13.4327L17.102 16.1193C18.3669 16.1991 19.615 16.4346 20.8355 16.8214L17.5877 9.55203H14.6482L11.4152 16.8235C12.6315 16.4388 13.8753 16.2034 15.1339 16.1214L16.118 13.4348V13.4327Z" fill="#FAFAFA"/>
<path d="M29.5442 13.4327L28.5602 16.1193C27.2953 16.1991 26.0472 16.4346 24.8267 16.8214L28.0745 9.55203H31.014L34.247 16.8235C33.0307 16.4388 31.7869 16.2034 30.5283 16.1214L29.5442 13.4348V13.4327Z" fill="#FAFAFA"/>
<path d="M23.0178 30.6244C19.5207 30.6244 16.066 29.4114 13.0272 27.1158L14.9425 24.6037C17.4597 26.5062 20.1754 27.4711 23.0178 27.4711C25.8601 27.4711 28.5885 26.502 31.112 24.589L33.0315 27.0969C29.9885 29.4051 26.5253 30.6244 23.0178 30.6244Z" fill="#FAFAFA"/>
<path d="M13.2046 34.209C10.1151 34.1144 9.37603 33.3618 9.36758 30.2779C9.36125 28.386 9.38025 26.494 9.35913 24.602C9.32957 21.9364 8.80375 19.5568 5.53481 18.7369C7.43325 18.1399 8.7045 17.1771 9.05716 15.3629C9.22398 14.5094 9.33168 13.6328 9.35069 12.7625C9.39503 10.6961 9.33168 8.6275 9.38236 6.56105C9.4436 4.15615 10.2439 3.36993 12.6196 3.22908C13.1286 3.19965 15.3268 3.16181 15.8358 3.12818V0.00012207C13.7051 0.237669 10.0856 0.256589 8.20825 0.925085C7.21574 1.27825 6.47453 2.11492 6.22746 3.13448C5.88958 4.52613 5.96349 5.94301 5.92759 7.35357C5.8748 9.48729 5.89381 11.6273 5.74387 13.7547C5.61295 15.592 4.70913 16.6494 3.09789 17.0236C2.71989 17.1119 2.33134 17.1414 1.94278 17.1414H0V20.2358H1.88365C2.35245 20.2358 2.82337 20.2883 3.27105 20.425C4.65634 20.8475 5.45034 21.7977 5.71853 23.3491C5.84312 24.0702 5.89803 24.8101 5.9107 25.5417C5.95082 27.8184 5.91281 30.0971 5.9825 32.3717C6.03951 34.2174 6.61179 35.855 8.506 36.6055C10.2946 37.3161 18.1882 37.2593 18.1882 37.2593V34.2237C18.1882 34.2237 13.477 34.2195 13.2004 34.2111L13.2046 34.209Z" fill="#FAFAFA"/>
<path d="M32.8546 34.2089C35.9441 34.1143 36.6832 33.3617 36.6916 30.2778C36.698 28.3858 36.6789 26.4939 36.7001 24.6019C36.7296 21.9363 37.2554 19.5566 40.5244 18.7368C38.626 18.1398 37.3547 17.177 37.002 15.3628C36.8352 14.5093 36.7275 13.6327 36.7085 12.7624C36.6642 10.6959 36.7275 8.62738 36.6768 6.56093C36.6156 4.15602 35.8153 3.36981 33.4396 3.22896C32.9306 3.19953 30.7323 3.16169 30.2234 3.12805V0C32.3541 0.237547 35.9736 0.256467 37.851 0.924962C38.8435 1.27813 39.5847 2.1148 39.8317 3.13436C40.1696 4.52601 40.0957 5.94288 40.1316 7.35345C40.1844 9.48717 40.1654 11.6272 40.3153 13.7546C40.4463 15.5919 41.3501 16.6493 42.9613 17.0235C43.3393 17.1118 43.7279 17.1412 44.1164 17.1412H46.0592V20.2357H44.1755C43.7067 20.2357 43.2358 20.2882 42.7881 20.4249C41.4029 20.8474 40.6089 21.7976 40.3407 23.349C40.2161 24.07 40.1612 24.81 40.1485 25.5416C40.1084 27.8182 40.1464 30.097 40.0767 32.3716C40.0197 34.2173 39.4474 35.8549 37.5532 36.6054C35.7646 37.3159 27.871 37.2592 27.871 37.2592V34.2236C27.871 34.2236 32.5822 34.2194 32.8588 34.211L32.8546 34.2089Z" fill="#FAFAFA"/>
</svg>
