<svg width="36" height="40" viewBox="0 0 36 40" fill="none" xmlns="http://www.w3.org/2000/svg">
<path d="M23.1935 15.9151C23.3983 15.9151 23.5797 15.914 23.7612 15.9151C24.1577 15.9178 24.3381 16.0979 24.3384 16.4898C24.3384 16.8737 24.3422 17.2577 24.336 17.6413C24.3343 17.7444 24.3679 17.7915 24.4647 17.8262C24.6845 17.9049 24.8989 17.9984 25.1424 18.0967C25.3136 17.9266 25.4988 17.7423 25.6837 17.5584C25.8216 17.4213 25.9557 17.28 26.0977 17.1473C26.3114 16.9476 26.5968 16.948 26.8046 17.1539C27.3249 17.6695 27.8425 18.1875 28.3567 18.7092C28.5731 18.9289 28.568 19.2245 28.3492 19.4427C28.0943 19.6971 27.834 19.946 27.5736 20.1945C27.4587 20.3045 27.3877 20.4055 27.4913 20.575C27.5798 20.7193 27.6347 20.8861 27.6892 21.0483C27.7221 21.1466 27.7705 21.1792 27.8724 21.1779C28.261 21.1724 28.65 21.1744 29.0386 21.1762C29.4008 21.1775 29.5871 21.3645 29.5874 21.7275C29.5884 22.438 29.5884 23.1481 29.5877 23.8586C29.5877 24.2161 29.3977 24.4037 29.0341 24.4051C28.651 24.4065 28.2682 24.4089 27.8851 24.4031C27.7794 24.4013 27.7232 24.4261 27.6865 24.5357C27.623 24.7248 27.5417 24.9087 27.4563 25.0895C27.4176 25.1713 27.4275 25.2198 27.4906 25.2816C27.7685 25.5542 28.0411 25.8316 28.3159 26.1073C28.5752 26.3678 28.5841 26.6483 28.3279 26.9033C27.8175 27.4114 27.3033 27.9156 26.7864 28.4174C26.5714 28.6264 26.2565 28.5893 26.0497 28.371C25.7746 28.0809 25.482 27.8073 25.1911 27.5327C25.163 27.5059 25.0875 27.5062 25.0447 27.5224C24.8526 27.5949 24.667 27.685 24.4739 27.7534C24.3703 27.7901 24.334 27.8414 24.3353 27.9507C24.3412 28.3459 24.3384 28.7412 24.3374 29.1365C24.3364 29.472 24.1422 29.6635 23.803 29.6655C23.6095 29.6665 23.4161 29.6655 23.1928 29.6655C23.1928 29.7559 23.1928 29.8333 23.1928 29.9106C23.1928 32.1733 23.188 34.4364 23.1952 36.6992C23.2003 38.2738 22.1881 39.5896 20.6848 39.9172C20.4303 39.9725 20.1637 39.9945 19.9031 39.9948C14.3752 39.999 8.84706 39.9962 3.31889 40C2.51867 40.0007 1.7915 39.7955 1.17341 39.2785C0.386564 38.6196 -0.000342775 37.772 2.27857e-07 36.7374C0.00343025 29.3242 0.00171524 21.911 0.00171524 14.4982C0.00171524 10.7458 0.00171524 6.99365 0.00171524 3.24119C0.00171524 1.63289 1.06365 0.346667 2.64215 0.0531249C2.83183 0.017721 3.02837 0.00259705 3.22148 0.00259705C8.79527 -0.000152767 14.3691 -0.000496494 19.9429 0.000534686C21.5917 0.000534686 22.9102 1.13002 23.1588 2.75653C23.189 2.95349 23.1918 3.15629 23.1921 3.35634C23.1938 7.45253 23.1935 11.5484 23.1938 15.6446C23.1938 15.7284 23.1938 15.8126 23.1938 15.9151H23.1935ZM22.2701 29.6662C22.0557 29.6662 21.8568 29.6683 21.6582 29.6659C21.3262 29.6617 21.1365 29.4727 21.1348 29.1437C21.1331 28.7543 21.13 28.3645 21.1358 27.9751C21.1375 27.8572 21.1115 27.7901 20.9873 27.7506C20.8086 27.6936 20.6357 27.6155 20.4666 27.5334C20.3699 27.4863 20.3095 27.4918 20.2317 27.5733C19.9627 27.8541 19.6853 28.1273 19.4091 28.4013C19.1687 28.6398 18.8768 28.6433 18.6364 28.4047C18.1369 27.9091 17.6403 27.411 17.145 26.9109C16.8864 26.6497 16.8946 26.3637 17.1594 26.0997C17.431 25.8292 17.6989 25.5549 17.9747 25.2885C18.045 25.2204 18.0526 25.1675 18.0124 25.0816C17.9277 24.9004 17.8481 24.7165 17.7809 24.5285C17.7459 24.4309 17.6958 24.402 17.5964 24.4034C17.2019 24.4086 16.8075 24.4075 16.413 24.4048C16.0752 24.4024 15.8824 24.2092 15.8817 23.8706C15.8803 23.1488 15.8817 22.427 15.8834 21.7052C15.8844 21.3752 16.0738 21.1823 16.4027 21.1779C16.6713 21.1741 16.9402 21.1772 17.2088 21.1762C17.3744 21.1755 17.5799 21.2325 17.6945 21.1548C17.8131 21.0748 17.8265 20.8524 17.9164 20.7118C18.057 20.4911 18.0807 20.3268 17.8426 20.1412C17.6032 19.9549 17.417 19.7019 17.1861 19.5029C16.9114 19.2661 16.875 18.9467 17.1337 18.6848C17.6279 18.184 18.1253 17.6863 18.625 17.1906C18.8785 16.9394 19.1728 16.9439 19.4229 17.1951C19.725 17.499 20.0259 17.8045 20.3208 18.1026C20.5596 18.0049 20.7777 17.9056 21.0034 17.8272C21.1128 17.7891 21.1368 17.7313 21.1351 17.6261C21.13 17.248 21.1327 16.8699 21.1331 16.4918C21.1334 16.0962 21.3131 15.9158 21.7083 15.9147C21.8945 15.914 22.0808 15.9147 22.2849 15.9147V6.49765H0.904498V30.7019H22.2701V29.6665V29.6662ZM0.914445 31.6275C0.911015 31.6932 0.90587 31.7433 0.90587 31.7935C0.90587 33.4661 0.905184 35.1383 0.906556 36.8109C0.906556 36.9137 0.911701 37.0171 0.925764 37.1189C1.08972 38.3037 2.14136 39.0922 3.24034 39.0891C8.80728 39.0737 14.3739 39.0819 19.9408 39.0819C20.0207 39.0819 20.101 39.0819 20.1809 39.0785C21.2391 39.0314 22.2314 38.0796 22.2643 37.0189C22.3031 35.7622 22.2948 34.5042 22.3003 33.2468C22.3024 32.7742 22.2849 32.3016 22.2766 31.8289C22.2756 31.7633 22.2766 31.6976 22.2766 31.6275H0.914445ZM22.2629 5.58128C22.2677 5.53316 22.2753 5.49466 22.2753 5.45616C22.276 4.67144 22.2787 3.88636 22.2732 3.10164C22.2722 2.95452 22.2489 2.80466 22.2156 2.66063C22.0115 1.7776 21.1979 0.901098 19.8554 0.904192C14.4476 0.916566 9.03983 0.909692 3.63205 0.910035C3.4777 0.910035 3.32335 0.908317 3.169 0.913473C1.8553 0.955751 0.908614 1.9309 0.905527 3.24531C0.903812 3.9613 0.905184 4.67762 0.905527 5.39361C0.905527 5.45444 0.910672 5.51528 0.913759 5.58162H22.2622L22.2629 5.58128ZM19.0552 27.4969C19.3302 27.2137 19.6108 26.9209 19.8959 26.6325C20.0746 26.4517 20.2773 26.429 20.5074 26.5294C20.8933 26.6974 21.2819 26.86 21.6733 27.0144C21.9017 27.1044 22.0338 27.2708 22.0352 27.52C22.0369 27.8695 22.0352 28.2188 22.0362 28.5683C22.0362 28.6285 22.042 28.6886 22.0455 28.7591C22.2928 28.7591 22.5209 28.7591 22.749 28.7591C22.9771 28.7591 23.201 28.7591 23.4363 28.7591C23.4363 28.3329 23.4356 27.9379 23.4363 27.543C23.437 27.256 23.5722 27.1003 23.8411 27.0023C24.194 26.8738 24.5446 26.7346 24.8828 26.572C25.1983 26.4204 25.3849 26.4324 25.6343 26.6875C25.9005 26.9597 26.1659 27.2333 26.4229 27.4976C26.7686 27.1518 27.0907 26.8294 27.4333 26.4867C27.1641 26.2231 26.889 25.9574 26.618 25.6879C26.3676 25.4391 26.357 25.2507 26.5124 24.9334C26.6626 24.6268 26.7974 24.3099 26.9082 23.9872C27.0444 23.5895 27.149 23.4967 27.575 23.4963C27.94 23.496 28.3049 23.4963 28.6757 23.4963V22.1008C28.6061 22.0973 28.545 22.0915 28.484 22.0915C28.1694 22.0908 27.8552 22.0912 27.5407 22.0915C27.1679 22.0915 27.0399 21.9801 26.9192 21.6313C26.8036 21.2978 26.6678 20.9692 26.5138 20.6516C26.358 20.3306 26.3717 20.1367 26.6263 19.8824C26.8921 19.6163 27.1579 19.3503 27.4213 19.087C27.0862 18.7512 26.7614 18.4253 26.4321 18.095C26.1567 18.3713 25.8782 18.6505 25.5996 18.9302C25.3921 19.1385 25.1805 19.1557 24.9154 19.0303C24.5813 18.8722 24.2403 18.7244 23.8925 18.6013C23.5451 18.4782 23.4363 18.3545 23.4363 17.9764C23.4363 17.6 23.4363 17.2233 23.4363 16.8363H22.0359C22.0359 16.9071 22.0359 16.9686 22.0359 17.0301C22.0359 17.3739 22.0376 17.7176 22.0355 18.0613C22.0338 18.3194 21.9017 18.4786 21.6592 18.5735C21.2723 18.7247 20.8892 18.8859 20.5091 19.0536C20.2941 19.1485 20.0821 19.1282 19.9086 18.9657C19.8458 18.9072 19.7861 18.8453 19.7268 18.7835C19.498 18.5466 19.2699 18.3091 19.0627 18.094C18.7104 18.4397 18.3853 18.7587 18.0519 19.086C18.2299 19.2736 18.4117 19.461 18.5887 19.6528C18.7382 19.8147 18.9001 19.97 19.0205 20.1522C19.0723 20.2302 19.0648 20.3815 19.0284 20.4784C18.8723 20.8936 18.6895 21.2985 18.529 21.712C18.4336 21.9581 18.2772 22.0867 17.9994 22.0912C17.7308 22.0953 17.4619 22.0915 17.1933 22.0912C17.0637 22.0912 16.934 22.0912 16.7972 22.0912V23.4967C16.8699 23.4967 16.9316 23.4967 16.993 23.4967C17.3419 23.497 17.6904 23.4932 18.0392 23.4997C18.2831 23.5042 18.4357 23.6362 18.5245 23.8627C18.6765 24.2498 18.8353 24.6344 19.0027 25.0149C19.0994 25.2349 19.0771 25.4552 18.909 25.6326C18.8264 25.7195 18.741 25.8044 18.6542 25.8873C18.4446 26.0877 18.2337 26.2863 18.0347 26.475C18.3901 26.8311 18.7122 27.1539 19.0552 27.4976V27.4969Z" fill="#3730A3"/>
<path d="M34.1183 13.7224C34.3588 13.9585 34.6081 14.2015 34.8554 14.4463C35.1343 14.7223 35.1295 15.0065 34.8537 15.2791C34.437 15.6912 34.0236 16.1071 33.6114 16.5234C33.3592 16.7781 33.0704 16.787 32.817 16.5316C32.604 16.3172 32.3968 16.0968 32.1937 15.8724C32.1066 15.7761 32.0195 15.7528 31.9073 15.8153C31.8476 15.8487 31.7907 15.8892 31.7272 15.9122C31.4367 16.0171 31.436 16.0154 31.436 16.3151C31.436 16.5901 31.4381 16.8651 31.4353 17.1397C31.4323 17.4401 31.2374 17.6577 30.9363 17.6622C30.2962 17.6718 29.6562 17.6704 29.0161 17.6611C28.7191 17.6567 28.5246 17.4418 28.5195 17.1352C28.514 16.809 28.515 16.4821 28.5198 16.156C28.5212 16.0621 28.4982 16.0061 28.4015 15.982C28.3301 15.9642 28.2626 15.9308 28.194 15.9023C27.9941 15.8198 27.8156 15.8567 27.6585 16.013C27.4764 16.1948 27.2974 16.3797 27.1121 16.5585C26.8954 16.7678 26.5887 16.7619 26.3778 16.5509C25.949 16.1223 25.5203 15.694 25.0915 15.265C24.8291 15.0027 24.8288 14.7147 25.0898 14.4545C25.3124 14.2325 25.533 14.0077 25.7587 13.7891C25.8211 13.7289 25.8468 13.6787 25.7947 13.5993C25.7607 13.5474 25.7254 13.4883 25.7165 13.4288C25.6705 13.1184 25.4812 13.0524 25.1992 13.081C24.9673 13.1043 24.731 13.0885 24.4967 13.0848C24.1541 13.0793 23.9545 12.8768 23.9538 12.5365C23.9527 11.9295 23.9527 11.3225 23.9538 10.7151C23.9541 10.3724 24.1544 10.1696 24.4926 10.1682C24.8127 10.1672 25.1327 10.1634 25.4527 10.1706C25.5573 10.173 25.6088 10.1376 25.6314 10.0393C25.6427 9.9895 25.6657 9.94241 25.6849 9.89463C25.783 9.6531 25.7377 9.43816 25.5491 9.2498C25.3913 9.09203 25.2318 8.93597 25.0757 8.77648C24.8356 8.53141 24.8343 8.24302 25.0723 8.00344C25.5038 7.56932 25.9363 7.13657 26.3692 6.70416C26.6035 6.47008 26.8875 6.46699 27.1241 6.69866C27.3529 6.92277 27.579 7.14997 27.8019 7.37992C27.8709 7.45073 27.9288 7.4741 28.0242 7.4222C28.1391 7.35999 28.2626 7.31015 28.3878 7.27268C28.4972 7.24003 28.5226 7.17987 28.5202 7.07298C28.5137 6.75812 28.5167 6.44292 28.5188 6.12807C28.5212 5.795 28.7198 5.59323 29.0518 5.59186C29.6634 5.58911 30.275 5.58842 30.8865 5.59083C31.2433 5.5922 31.434 5.78709 31.4353 6.14491C31.4367 6.45977 31.4384 6.77496 31.4336 7.08982C31.4323 7.18366 31.4559 7.24071 31.553 7.26306C31.6134 7.27681 31.6772 7.29709 31.7272 7.3318C31.9612 7.49301 32.1392 7.4497 32.3155 7.22628C32.4661 7.03551 32.6575 6.87739 32.8286 6.70278C33.0526 6.47489 33.3452 6.46458 33.5719 6.68869C34.023 7.13553 34.4716 7.58513 34.9172 8.03747C35.1178 8.2413 35.1127 8.53931 34.9103 8.74589C34.6819 8.9786 34.4521 9.20992 34.2174 9.43644C34.1413 9.51 34.119 9.57221 34.1728 9.67224C34.2346 9.78738 34.2819 9.91216 34.3214 10.0369C34.355 10.1428 34.4133 10.1734 34.5213 10.171C34.8468 10.1638 35.1727 10.1669 35.4986 10.1689C35.7939 10.1706 35.9976 10.3789 35.9987 10.6818C36.0004 11.306 36 11.9302 35.999 12.5547C35.9987 12.8761 35.8038 13.0786 35.478 13.0848C35.158 13.0909 34.8379 13.0906 34.5179 13.0841C34.4095 13.0817 34.3546 13.1157 34.3197 13.2209C34.2655 13.3828 34.1931 13.5385 34.118 13.7227L34.1183 13.7224ZM29.425 6.50617C29.425 6.84508 29.4274 7.17541 29.4243 7.50573C29.4219 7.78174 29.293 7.92954 29.034 8.0196C28.7493 8.11859 28.4653 8.22583 28.1953 8.35851C27.8108 8.54791 27.6802 8.54103 27.3793 8.23615C27.1729 8.02682 26.9701 7.81336 26.7907 7.62741C26.5071 7.90342 26.2505 8.15296 25.9926 8.40388C26.219 8.63212 26.4495 8.86276 26.6776 9.09546C26.8569 9.27867 26.8851 9.48594 26.7877 9.70798C26.6412 10.0417 26.5009 10.3786 26.3682 10.7182C26.2838 10.9344 26.124 11.065 25.8941 11.0715C25.7686 11.075 25.6427 11.0726 25.5168 11.0726C25.3025 11.0726 25.0881 11.0726 24.8703 11.0726V12.1725C25.1965 12.1725 25.51 12.1718 25.8235 12.1725C26.1397 12.1732 26.2927 12.3059 26.3956 12.6087C26.4927 12.8943 26.6066 13.1762 26.7396 13.4467C26.8967 13.7664 26.8837 13.9479 26.6316 14.1995C26.4141 14.417 26.1953 14.6332 25.9833 14.8436C26.2502 15.111 26.503 15.365 26.7705 15.6335C26.9996 15.3984 27.2288 15.1588 27.4634 14.9244C27.6404 14.7474 27.864 14.7315 28.0921 14.835C28.408 14.9783 28.7301 15.1086 29.0549 15.2303C29.2803 15.3149 29.4154 15.4712 29.4236 15.7108C29.4274 15.8194 29.425 15.9284 29.425 16.0374C29.425 16.2694 29.425 16.5017 29.425 16.7313H30.5322C30.5322 16.3945 30.5298 16.0745 30.5329 15.7545C30.5357 15.4503 30.6921 15.2939 30.9792 15.2128C31.2378 15.1396 31.495 15.0382 31.729 14.9065C32.0469 14.7278 32.3272 14.7319 32.5199 14.9505C32.7147 15.1715 32.9257 15.3781 33.1305 15.5898C33.1486 15.6084 33.1757 15.618 33.2203 15.6445C33.4796 15.387 33.7366 15.1323 34.0089 14.8615C33.7513 14.6102 33.5253 14.3916 33.3009 14.1713C33.0845 13.9585 33.0674 13.7619 33.1953 13.4897C33.3359 13.191 33.4618 12.884 33.574 12.5733C33.6679 12.3131 33.8261 12.1753 34.1025 12.1725C34.3711 12.1698 34.6397 12.1725 34.9082 12.1715C34.9683 12.1715 35.028 12.1643 35.0835 12.1608V11.0722C34.768 11.0722 34.4658 11.0722 34.1636 11.0722C33.8034 11.0722 33.6662 10.9561 33.5551 10.6189C33.4663 10.3487 33.361 10.0809 33.2327 9.8276C33.055 9.47562 33.0639 9.30892 33.34 9.03359C33.5534 8.82083 33.7702 8.61218 33.9554 8.43104C33.6817 8.15434 33.4309 7.90067 33.1754 7.64219C32.959 7.85908 32.7302 8.09109 32.4983 8.32002C32.3169 8.49944 32.1111 8.52488 31.8867 8.42588C31.554 8.27911 31.2172 8.14059 30.8783 8.00826C30.6735 7.92817 30.5377 7.76662 30.5332 7.54457C30.5278 7.25824 30.5312 6.97192 30.5308 6.6856C30.5308 6.62579 30.5308 6.56598 30.5308 6.50651H29.424L29.425 6.50617Z" fill="#3730A3"/>
<path d="M17.4448 15.2987C17.4448 15.7283 17.4462 16.158 17.4441 16.5876C17.4428 16.8956 17.2497 17.0895 16.9399 17.0912C16.4426 17.0936 15.9452 17.0953 15.4479 17.0891C15.3367 17.0878 15.2897 17.1266 15.252 17.2284C15.1587 17.48 15.0603 17.7305 14.9433 17.9718C14.886 18.0901 14.9124 18.1564 14.9958 18.2379C15.3306 18.5665 15.6609 18.8992 15.9926 19.2312C16.2433 19.4822 16.2097 19.8245 15.95 20.0648C15.6574 20.336 15.3937 20.6385 15.1138 20.9238C14.8212 21.2218 14.5252 21.5163 14.2285 21.8102C13.9857 22.0505 13.7054 22.0471 13.4619 21.8034C13.122 21.4634 12.7779 21.1276 12.4459 20.7801C12.3554 20.6852 12.2905 20.6886 12.1828 20.7388C11.9506 20.8475 11.7139 20.9492 11.4725 21.0334C11.3504 21.076 11.3027 21.129 11.3047 21.2613C11.3123 21.7425 11.3089 22.2237 11.3071 22.7049C11.3058 23.0576 11.1209 23.2419 10.7669 23.2425C9.93239 23.2439 9.09787 23.2436 8.263 23.2425C7.89839 23.2422 7.71248 23.0648 7.70699 22.6967C7.69945 22.2155 7.70013 21.7343 7.70596 21.253C7.70734 21.1314 7.66995 21.076 7.55264 21.0348C7.31083 20.9499 7.0721 20.8526 6.84228 20.7392C6.72189 20.6801 6.65329 20.699 6.56548 20.7897C6.23929 21.1266 5.90486 21.4555 5.57489 21.7889C5.31249 22.0539 5.03603 22.0567 4.76952 21.7906C4.19053 21.2128 3.61223 20.6343 3.0353 20.0545C2.75027 19.7681 2.75232 19.5059 3.0353 19.2233C3.37144 18.8879 3.70518 18.55 4.0427 18.2162C4.11096 18.1485 4.13497 18.097 4.08729 17.9966C3.96758 17.7439 3.85816 17.4851 3.76487 17.2218C3.72542 17.1105 3.67191 17.0885 3.56764 17.0895C3.08195 17.094 2.59591 17.0926 2.10988 17.0909C1.76756 17.0898 1.57308 16.907 1.57239 16.565C1.57171 16.1607 1.59469 15.7569 1.59469 15.3526C1.59469 14.925 1.5748 14.4978 1.57205 14.0702C1.56931 13.6563 1.75384 13.4786 2.17128 13.478C2.6285 13.4773 3.08606 13.4707 3.54294 13.4817C3.68529 13.4852 3.73777 13.4346 3.78236 13.3078C3.86777 13.0658 3.97067 12.8293 4.0794 12.5966C4.12536 12.4983 4.12262 12.4389 4.04167 12.3602C3.69729 12.025 3.35944 11.683 3.02124 11.3413C2.75369 11.0712 2.75472 10.8048 3.0233 10.5346C3.60434 9.95063 4.18607 9.36698 4.76883 8.78437C5.03192 8.52141 5.29843 8.51866 5.56083 8.77887C5.90623 9.12122 6.2506 9.4646 6.59052 9.81245C6.66186 9.88567 6.71675 9.89563 6.81073 9.85232C7.05906 9.73786 7.31151 9.62993 7.56842 9.53644C7.67475 9.4976 7.70699 9.44707 7.70562 9.33948C7.70082 8.87545 7.70288 8.41142 7.70391 7.94739C7.70459 7.50639 7.87918 7.3304 8.31651 7.33006C9.11673 7.32937 9.91696 7.32903 10.7175 7.33006C11.135 7.33075 11.3071 7.50673 11.3075 7.92814C11.3075 8.39802 11.3102 8.86755 11.3054 9.33742C11.3044 9.44432 11.3342 9.49485 11.4419 9.53369C11.7043 9.62821 11.9609 9.7413 12.2158 9.85576C12.3015 9.89426 12.354 9.88876 12.4222 9.81898C12.7618 9.47079 13.1076 9.12878 13.4509 8.78437C13.7116 8.52279 13.9815 8.51901 14.2426 8.77955C14.8294 9.36561 15.4153 9.95269 15.9994 10.5415C16.2628 10.8072 16.2652 11.0681 16.0042 11.3341C15.664 11.6813 15.3206 12.0257 14.9728 12.365C14.8967 12.4392 14.8943 12.4956 14.9361 12.5877C15.049 12.8376 15.1567 13.0902 15.2506 13.3477C15.2894 13.4539 15.3409 13.4828 15.4479 13.4814C15.9109 13.4752 16.374 13.4862 16.8367 13.4752C17.2195 13.4663 17.4678 13.6783 17.4483 14.0784C17.4284 14.484 17.4438 14.8917 17.4438 15.2983L17.4448 15.2987ZM16.5345 14.3926C16.0289 14.3926 15.5436 14.3933 15.0579 14.3926C14.7385 14.3919 14.6 14.2675 14.4916 13.9757C14.329 13.5378 14.1493 13.1054 13.9558 12.6805C13.8368 12.4186 13.8385 12.2313 14.0364 12.0236C14.2141 11.8373 14.3976 11.6569 14.5811 11.4764C14.7591 11.3015 14.9402 11.1296 15.0932 10.9822C14.6583 10.5384 14.2481 10.1197 13.8217 9.68424C13.4804 10.0311 13.1364 10.382 12.7906 10.7309C12.5715 10.9519 12.3876 10.9608 12.1111 10.8347C11.682 10.6384 11.2447 10.458 10.8033 10.2913C10.5423 10.1926 10.4061 10.0421 10.4051 9.76296C10.404 9.32195 10.4047 8.88095 10.4044 8.43961C10.4044 8.37911 10.4044 8.31862 10.4044 8.2564H8.62041C8.62041 8.32961 8.62041 8.39149 8.62041 8.45301C8.62041 8.88267 8.62247 9.31233 8.61972 9.74199C8.61801 10.0445 8.48389 10.1875 8.204 10.2937C7.73718 10.4714 7.28167 10.6797 6.81862 10.868C6.73767 10.901 6.63442 10.9299 6.55656 10.9079C6.44166 10.8753 6.32126 10.8148 6.2362 10.7323C5.88051 10.3861 5.53716 10.0273 5.20033 9.68424C4.76472 10.1177 4.349 10.5315 3.9079 10.9705C4.24541 11.3008 4.58739 11.6363 4.93073 11.9711C5.19004 12.224 5.19793 12.3962 5.04461 12.7207C4.85493 13.1222 4.68617 13.535 4.53628 13.953C4.42377 14.2671 4.29035 14.3916 3.95146 14.3926C3.52854 14.3936 3.10562 14.3926 2.68235 14.3933C2.61684 14.3933 2.55132 14.4005 2.44705 14.4067C2.44705 14.7195 2.44705 15.0106 2.44705 15.3018C2.44705 15.5929 2.44705 15.8803 2.44705 16.1879C2.55818 16.1879 2.61958 16.1879 2.68132 16.1879C3.10905 16.1879 3.53643 16.1879 3.96415 16.1879C4.28177 16.1882 4.42309 16.3144 4.53045 16.6045C4.69234 17.0424 4.87208 17.4745 5.06553 17.8993C5.18833 18.1691 5.18044 18.3572 4.97086 18.5685C4.66456 18.8772 4.3562 19.1838 4.04922 19.4918C4.00257 19.5385 3.95866 19.5884 3.93054 19.6183C4.35826 20.0483 4.77158 20.4635 5.20342 20.898C5.22846 20.865 5.25555 20.8196 5.29191 20.7832C5.61056 20.4625 5.92818 20.1411 6.25129 19.8252C6.42965 19.6506 6.65775 19.6265 6.84846 19.7125C7.2827 19.908 7.71694 20.1064 8.16353 20.2703C8.48149 20.3869 8.61869 20.5247 8.61972 20.8626C8.62109 21.2864 8.61972 21.7102 8.61972 22.1344C8.61972 22.2 8.61972 22.2653 8.61972 22.3272H10.4044C10.4044 21.8291 10.4044 21.3431 10.4044 20.8571C10.4044 20.5237 10.535 20.3848 10.8462 20.2734C11.2636 20.1243 11.6752 19.9548 12.0751 19.764C12.3859 19.6159 12.5646 19.6197 12.8112 19.8685C13.1528 20.2136 13.4924 20.5604 13.8282 20.9021C14.2618 20.4683 14.6771 20.0524 15.1272 19.6018C15.0815 19.5702 15.0232 19.5409 14.979 19.4973C14.6614 19.1838 14.3458 18.8683 14.0313 18.5517C13.8539 18.3733 13.8152 18.153 13.938 17.9409C14.1884 17.5078 14.3756 17.0496 14.5111 16.5684C14.5856 16.3037 14.7509 16.1879 15.0284 16.1872C15.4685 16.1862 15.9085 16.1872 16.3489 16.1872C16.4093 16.1872 16.4697 16.1872 16.5342 16.1872V14.3926H16.5345Z" fill="#3730A3"/>
<path d="M14.4664 35.3476C14.4691 36.9387 13.1921 38.2311 11.6157 38.2318C9.99159 38.2325 8.72316 36.9669 8.71973 35.3424C8.7163 33.7681 9.99913 32.4774 11.5694 32.475C13.1808 32.4726 14.4637 33.7448 14.4664 35.3476ZM11.6473 33.3794C10.5222 33.3753 9.62629 34.2408 9.62149 35.3366C9.61668 36.4355 10.4975 37.324 11.5948 37.3271C12.6708 37.3302 13.5475 36.4461 13.5636 35.3675C13.5801 34.2882 12.6385 33.3656 11.6469 33.3794H11.6473Z" fill="#3730A3"/>
<path d="M14.3871 2.81555C14.3871 3.06888 14.3875 3.3088 14.3868 3.54872C14.3868 3.59375 14.3813 3.63843 14.3772 3.70065C14.3117 3.70374 14.251 3.7089 14.1902 3.7089C12.4591 3.70924 10.728 3.70683 8.99718 3.71302C8.82843 3.71371 8.78212 3.66215 8.79173 3.5006C8.80476 3.27855 8.79516 3.05513 8.79516 2.81555H14.3875H14.3871Z" fill="#3730A3"/>
<path d="M22.7246 25.6991C21.0724 25.6764 19.8112 24.3644 19.8366 22.695C19.8599 21.142 21.1945 19.8706 22.7809 19.8905C24.3947 19.9104 25.6635 21.2351 25.6371 22.8716C25.612 24.4246 24.2771 25.7208 22.7246 25.6991ZM22.7041 24.7852C23.8113 24.7941 24.7237 23.9107 24.7315 22.8221C24.7394 21.7232 23.8583 20.8079 22.7816 20.7966C21.6624 20.7849 20.7541 21.6641 20.738 22.7644C20.7222 23.8516 21.6558 24.8185 22.7041 24.7852Z" fill="#3730A3"/>
<path d="M29.9737 14.2063C28.5396 14.2011 27.372 13.0466 27.4077 11.6143C27.4461 10.0757 28.5869 9.03734 30.0141 9.03803C31.417 9.03871 32.5736 10.2273 32.5654 11.6445C32.5572 13.0603 31.3927 14.2115 29.9737 14.2063ZM28.308 11.618C28.3022 12.5317 29.0438 13.2923 29.9483 13.2995C30.8888 13.3071 31.652 12.5629 31.6595 11.6308C31.6667 10.7237 30.9059 9.95165 29.9953 9.94237C29.0726 9.93309 28.3139 10.6865 28.308 11.6177V11.618Z" fill="#3730A3"/>
<path d="M12.8215 15.2801C12.827 17.1019 11.3551 18.5981 9.55334 18.6033C7.68775 18.6088 6.19569 17.1404 6.19397 15.298C6.19226 13.4694 7.67437 11.9752 9.50154 11.9635C11.3167 11.9518 12.8163 13.4498 12.8215 15.2801ZM7.1067 15.2746C7.09024 16.5715 8.15595 17.667 9.42951 17.7034C10.6976 17.7395 12.012 16.7214 11.9187 15.1364C11.8415 13.8234 10.7861 12.9029 9.56226 12.8833C8.20328 12.8613 7.12419 13.9152 7.1067 15.2746Z" fill="#3730A3"/>
</svg>
