<svg width="42" height="32" viewBox="0 0 42 32" fill="none" xmlns="http://www.w3.org/2000/svg">
<path d="M42.0002 2.63879V29.3483C41.9824 29.3679 41.9527 29.3848 41.9486 29.407C41.6335 30.9689 40.2064 32.0049 38.3247 32C26.7341 31.9675 15.1431 31.984 3.55249 31.9835C1.34693 31.9835 0.0015248 30.6739 0.0015248 28.5289C0.0015248 22.8928 0.0015248 17.2562 0.0015248 11.6201C0.0015248 8.83541 0.00334909 6.05027 0.000612663 3.26557C-0.000299479 2.43194 0.268782 1.70418 0.827925 1.0694C1.35013 0.475979 2.04974 0.20774 2.78903 0C14.9296 0 27.0707 0 39.2113 0C39.7248 0.229093 40.2721 0.406139 40.7432 0.699288C41.4552 1.1419 41.7521 1.88612 42.0002 2.63924V2.63879ZM1.23064 6.36165C1.23064 6.52625 1.23064 6.66904 1.23064 6.81228C1.23064 14.036 1.23064 21.2598 1.23064 28.4835C1.23064 29.9951 2.03104 30.7794 3.57575 30.7794C15.1969 30.7798 26.818 30.7798 38.4392 30.7794C39.9579 30.7794 40.7683 29.9884 40.7688 28.5085C40.7697 21.2714 40.7688 14.0343 40.7688 6.79715V6.36165H1.23064ZM40.7642 5.10899C40.7642 4.42571 40.7879 3.78648 40.7578 3.14947C40.7245 2.44306 40.4336 1.82473 39.7609 1.5169C39.3454 1.32651 38.8492 1.2202 38.389 1.21975C26.7961 1.20418 15.2037 1.2073 3.61087 1.2073C3.50141 1.2073 3.39195 1.20329 3.28295 1.20952C2.2723 1.26735 1.43997 1.83941 1.32641 2.71708C1.22562 3.49733 1.30543 4.29938 1.30543 5.10854H40.7647L40.7642 5.10899Z" fill="#3730A3"/>
<path d="M22.291 26.222C22.1537 26.222 22.0055 26.2229 21.8572 26.222C20.5241 26.214 19.7169 25.4346 19.7096 24.1272C19.7014 22.6348 19.7078 21.1423 19.7078 19.6495C19.7078 19.5067 19.7078 19.3639 19.7078 19.1984H18.345C18.345 19.3692 18.345 19.5356 18.345 19.702C18.345 20.1152 18.3514 20.5285 18.3437 20.9413C18.319 22.2491 17.5218 23.0165 16.1773 23.0182C13.0332 23.0218 9.88903 23.0196 6.74488 23.0196C6.48492 23.0196 6.22541 23.0245 5.96591 23.0182C4.74911 22.988 3.94597 22.1966 3.94232 21.0138C3.93731 19.3879 3.93822 17.762 3.94187 16.1366C3.9446 14.919 4.71947 14.109 5.97092 14.1019C9.41563 14.0827 12.8608 14.0823 16.3055 14.1023C17.5519 14.1094 18.3117 14.9021 18.3423 16.1392C18.3569 16.722 18.3446 17.3056 18.3446 17.9155H19.7078C19.7078 17.7794 19.7078 17.6392 19.7078 17.4995C19.7078 16.0605 19.7078 14.621 19.7078 13.1819C19.7078 11.6294 20.4288 10.9186 22.0287 10.8892C22.1218 10.8874 22.2148 10.8745 22.3274 10.8652C22.3621 10.6864 22.3831 10.5151 22.4301 10.3505C22.6727 9.4991 23.4339 8.97464 24.4514 8.97063C26.0919 8.96441 27.7323 8.96885 29.3728 8.96885C31.5328 8.96885 33.6927 8.96752 35.8527 8.9693C37.2811 8.97063 38.0587 9.72909 38.0601 11.1161C38.0601 11.3826 38.0601 11.649 38.0601 11.9155C38.0578 13.2776 37.2834 14.0409 35.8764 14.044C33.197 14.0498 30.5176 14.0498 27.8381 14.044C26.5812 14.0414 25.3225 14.0592 24.0683 13.9947C23.168 13.9484 22.535 13.3163 22.3954 12.452C22.3557 12.2064 22.27 12.1179 22.0082 12.1165C21.1882 12.1121 20.9779 12.2963 20.9775 13.0854C20.9761 14.5512 20.9775 16.0173 20.9775 17.4831V17.939C21.3957 17.939 21.7861 17.9515 22.1742 17.9279C22.2472 17.9235 22.3516 17.7825 22.3731 17.6895C22.6321 16.5716 23.2975 16.0222 24.4769 16.02C28.291 16.0129 32.1047 16.0129 35.9188 16.02C37.2683 16.0222 38.056 16.8052 38.0601 18.1116C38.061 18.4181 38.0614 18.7246 38.0601 19.0311C38.055 20.3083 37.2537 21.0947 35.9334 21.0979C33.4729 21.1036 31.0119 21.0996 28.5514 21.0996C27.2393 21.0996 25.9268 21.1005 24.6146 21.0996C23.2733 21.0987 22.6426 20.601 22.3575 19.3234C22.3493 19.2856 22.3252 19.2513 22.3001 19.1966H20.9962C20.9898 19.3243 20.9788 19.4511 20.9784 19.5778C20.977 21.0836 20.9757 22.5894 20.9784 24.0956C20.9798 24.8327 21.4796 25.2051 22.1938 24.9938C22.2704 24.9711 22.3489 24.8559 22.3699 24.7705C22.6727 23.5565 23.277 23.0858 24.5704 23.0836C26.5251 23.0801 28.4803 23.0827 30.435 23.0827C32.2392 23.0827 34.0439 23.0801 35.8481 23.0836C37.3126 23.0867 38.0591 23.8238 38.0601 25.2549C38.0601 25.5614 38.0628 25.8679 38.0596 26.1744C38.0468 27.3296 37.2346 28.1286 36.0442 28.1419C35.1832 28.1517 34.3216 28.1441 33.4606 28.1441C30.5217 28.1441 27.5823 28.1441 24.6434 28.1441C23.2606 28.1441 22.6508 27.6686 22.3557 26.3625C22.3471 26.3247 22.3233 26.2905 22.2919 26.2237L22.291 26.222ZM11.1318 15.3283C9.45029 15.3283 7.76921 15.3261 6.08768 15.3296C5.43322 15.331 5.18101 15.5632 5.17873 16.1837C5.17189 17.7696 5.17189 19.3554 5.17873 20.9408C5.18147 21.5427 5.43367 21.7918 6.05484 21.7931C9.44482 21.7989 12.8348 21.7994 16.2248 21.7931C16.8555 21.7918 17.0758 21.5565 17.0767 20.9328C17.0794 19.3737 17.0785 17.8145 17.0772 16.2553C17.0767 15.5249 16.8797 15.3301 16.134 15.3292C14.4662 15.327 12.7988 15.3283 11.1309 15.3287L11.1318 15.3283ZM30.186 24.3003C28.3001 24.3003 26.4143 24.2994 24.5284 24.3007C23.8193 24.3012 23.6108 24.5084 23.6081 25.2086C23.6067 25.5418 23.6012 25.875 23.6117 26.2077C23.625 26.6241 23.8211 26.8394 24.2434 26.9088C24.377 26.9306 24.5152 26.931 24.6511 26.931C28.3544 26.9319 32.0582 26.9319 35.7615 26.9319C35.8436 26.9319 35.9256 26.9355 36.0073 26.9302C36.5523 26.8959 36.799 26.6588 36.8214 26.1286C36.8341 25.8225 36.8268 25.516 36.8237 25.2095C36.8173 24.5338 36.5778 24.3012 35.8851 24.3007C33.9855 24.2994 32.086 24.3003 30.1865 24.3003H30.186ZM30.1842 12.8118C32.1111 12.8118 34.0375 12.8141 35.9644 12.8105C36.5559 12.8092 36.8045 12.5658 36.8227 11.988C36.83 11.7482 36.8241 11.5084 36.8241 11.2687C36.8241 10.375 36.6371 10.1917 35.7222 10.1917C32.0463 10.1913 28.3704 10.1917 24.6949 10.1917C24.5585 10.1917 24.4208 10.1895 24.2858 10.2042C23.8421 10.2527 23.6263 10.4733 23.6117 10.9052C23.6003 11.238 23.6063 11.5712 23.6076 11.9044C23.6104 12.609 23.812 12.8105 24.5266 12.8114C26.4125 12.8132 28.2983 12.8118 30.1837 12.8118H30.1842ZM30.1869 17.2536C28.2741 17.2536 26.3609 17.2509 24.4482 17.2549C23.8379 17.2562 23.6163 17.4804 23.6081 18.077C23.6044 18.3568 23.6067 18.6366 23.6076 18.9159C23.6099 19.6797 23.7919 19.863 24.5699 19.8643C26.5237 19.8665 28.4776 19.8652 30.4318 19.8652C32.2629 19.8652 34.0936 19.8683 35.9247 19.8634C36.5728 19.8616 36.8118 19.6241 36.8237 18.9978C36.8287 18.718 36.8268 18.4382 36.8241 18.1588C36.8173 17.4826 36.5833 17.2549 35.8851 17.2544C33.986 17.2522 32.0864 17.2536 30.1874 17.254L30.1869 17.2536Z" fill="#3730A3"/>
<path d="M22.2992 3.77268C18.2538 3.77268 14.208 3.77268 10.1627 3.77268C9.50638 3.77268 9.19443 3.57561 9.1999 3.16769C9.20537 2.75711 9.51504 2.56494 10.1741 2.56494C18.2652 2.56494 26.3564 2.56494 34.4475 2.56538C34.5976 2.56538 34.7522 2.55293 34.8967 2.58184C35.2324 2.64901 35.4386 2.86209 35.4194 3.19839C35.4012 3.52624 35.2032 3.73798 34.8457 3.76289C34.6961 3.77312 34.5451 3.77268 34.3951 3.77268C30.3629 3.77312 26.3313 3.77268 22.2992 3.77268Z" fill="#3730A3"/>
<path d="M38.1184 3.76514C37.8872 3.76514 37.6555 3.77448 37.4248 3.76291C37.0777 3.74601 36.8706 3.56318 36.8355 3.22377C36.8018 2.89637 37.0157 2.60589 37.3618 2.5832C37.8489 2.55161 38.3424 2.54761 38.829 2.58453C39.1633 2.60989 39.3599 2.84121 39.3672 3.18151C39.3736 3.49779 39.1273 3.73845 38.7715 3.76247C38.5549 3.77715 38.3364 3.76514 38.1189 3.76514H38.1184Z" fill="#3730A3"/>
<path d="M7.17264 3.76334C6.84746 3.75533 6.57245 3.4862 6.57154 3.17526C6.57062 2.85453 6.88029 2.56049 7.20775 2.57028C7.54707 2.58051 7.81296 2.87054 7.79517 3.20996C7.77784 3.53424 7.51104 3.77134 7.17264 3.76334Z" fill="#3730A3"/>
<path d="M3.25549 2.56985C3.59436 2.57563 3.86754 2.86433 3.8534 3.20241C3.84018 3.52403 3.5711 3.76869 3.23588 3.76424C2.90341 3.75979 2.63524 3.50268 2.63068 3.18328C2.62566 2.85543 2.92211 2.56406 3.25504 2.56985H3.25549Z" fill="#3730A3"/>
<path d="M5.21744 3.76335C4.88588 3.76335 4.61269 3.5089 4.6022 3.19173C4.59171 2.86744 4.88724 2.5694 5.21881 2.5694C5.55721 2.5694 5.83313 2.85365 5.82401 3.19351C5.81489 3.52002 5.55539 3.76424 5.21744 3.76379V3.76335Z" fill="#3730A3"/>
</svg>
