<svg width="38" height="40" viewBox="0 0 38 40" fill="none" xmlns="http://www.w3.org/2000/svg">
<path d="M23.3152 35.5617C23.3819 35.5669 23.4342 35.5748 23.4865 35.5748C25.9696 35.5719 28.4528 35.5824 30.9356 35.5595C32.2818 35.547 33.3027 36.5793 33.3209 37.9198C33.3268 38.3608 33.3253 38.8017 33.3193 39.2427C33.3178 39.3584 33.2954 39.4756 33.2683 39.5891C33.2149 39.8135 33.0632 39.9417 32.8344 39.9766C32.7349 39.9919 32.6329 39.9982 32.5321 39.9982C23.5071 39.9993 14.482 39.9995 5.45712 39.9997C5.42121 39.9997 5.38551 39.9999 5.3496 39.9993C4.93037 39.9919 4.71465 39.8484 4.69249 39.4376C4.65302 38.712 4.59206 37.9773 4.75523 37.2595C4.9818 36.2619 5.89986 35.573 6.98706 35.5676C8.46136 35.5601 9.93565 35.5651 11.41 35.5651C12.4306 35.5651 13.4514 35.5632 14.472 35.5693C14.6135 35.5702 14.6714 35.5435 14.6705 35.3892C14.6649 34.3312 14.6674 33.2731 14.6707 32.215C14.6709 32.1212 14.6361 32.0882 14.5461 32.09C14.4149 32.0926 14.2834 32.09 14.1521 32.09C9.90218 32.09 5.65244 32.0906 1.40248 32.0889C1.27811 32.0889 1.14708 32.0887 1.03091 32.0522C0.82562 31.988 0.704794 31.8311 0.691714 31.6193C0.673756 31.3264 0.669322 31.0321 0.669322 30.7385C0.667992 26.2291 0.668436 21.7196 0.668214 17.2102C0.668214 14.7409 0.666219 12.2716 0.666884 9.80228C0.666884 9.14195 0.832936 8.98435 1.50446 8.98369C2.83532 8.98238 4.16617 8.9802 5.49703 8.97234C5.53649 8.97212 5.5979 8.90947 5.60965 8.86582C5.62894 8.79422 5.6163 8.71432 5.6163 8.63792C5.61586 6.30374 5.61409 3.96978 5.61519 1.6356C5.61564 0.89952 5.95373 0.351611 6.58734 0.11673C6.80993 0.0342165 7.06466 0.00452896 7.30476 0.00431067C12.8022 -0.00114659 18.2997 0.000818023 23.7969 0.00103631C26.101 0.00103631 28.4049 -0.00049172 30.709 0.000163151C31.4965 0.000381442 32.0554 0.374531 32.2893 1.08114C32.3525 1.27214 32.3702 1.48498 32.3707 1.68799C32.3771 4.0632 32.3775 6.43842 32.3738 8.81386C32.3738 8.94898 32.4083 8.98216 32.5423 8.98173C33.8614 8.97867 35.1805 8.98282 36.4996 8.98304C37.1507 8.98304 37.3334 9.15898 37.3334 9.79486C37.3334 16.9736 37.3334 24.1523 37.3316 31.3312C37.3316 31.4532 37.3187 31.5783 37.2893 31.6966C37.2358 31.9112 37.0868 32.0371 36.8658 32.0738C36.7898 32.0865 36.7115 32.0897 36.6344 32.0897C32.3487 32.09 28.0631 32.0897 23.7772 32.0887C23.3027 32.0887 23.3012 32.0873 23.3016 32.5589C23.3027 33.5113 23.3056 34.4637 23.3083 35.4161C23.3083 35.4569 23.3121 35.4979 23.3154 35.5614L23.3152 35.5617ZM31.2529 7.0241H6.73167C6.73167 7.33145 6.73167 7.62964 6.73167 7.92782C6.73189 12.4611 6.73211 16.9945 6.73233 21.5278C6.73233 21.6747 6.72679 21.822 6.73411 21.9685C6.74697 22.221 6.86158 22.3522 7.11765 22.3677C7.40896 22.3852 7.70182 22.3754 7.99402 22.3754C15.5273 22.3767 23.0606 22.3778 30.594 22.3782C30.6893 22.3782 30.7853 22.3754 30.88 22.3653C31.093 22.3429 31.2342 22.1942 31.2489 21.9809C31.2537 21.9106 31.2535 21.8399 31.2535 21.7694C31.2535 16.9657 31.2531 12.1618 31.2529 7.35808C31.2529 7.25308 31.2529 7.14809 31.2529 7.0241ZM1.8104 27.0298H36.1828V10.0893H32.3753C32.3753 10.2223 32.3753 10.3393 32.3753 10.4563C32.3762 14.2602 32.3797 18.0641 32.3713 21.8681C32.3709 22.1071 32.3232 22.3688 32.2168 22.5808C31.9038 23.2038 31.3617 23.4801 30.6596 23.4797C27.0306 23.4771 23.4014 23.4782 19.7724 23.4782C15.6479 23.478 11.5235 23.4793 7.39898 23.4734C7.15799 23.4729 6.90282 23.4546 6.67868 23.3765C6.01802 23.1459 5.6234 22.5856 5.61874 21.8943C5.61054 20.7009 5.6163 19.5073 5.61608 18.3139C5.61542 15.6328 5.61386 12.952 5.61697 10.271C5.61697 10.1229 5.58593 10.0695 5.42076 10.0706C4.25685 10.0784 3.09293 10.0747 1.92901 10.0756C1.88445 10.0756 1.83967 10.0832 1.81085 10.0861V27.0302L1.8104 27.0298ZM36.183 28.1461H1.8124V30.9924H36.183V28.1461ZM31.2524 5.92697C31.2524 5.76805 31.2524 5.63424 31.2524 5.50043C31.2513 4.1837 31.252 2.86697 31.2473 1.55024C31.2464 1.26559 31.0839 1.10821 30.7964 1.08965C30.737 1.08594 30.6771 1.08769 30.6175 1.08769C22.8354 1.08769 15.0531 1.08769 7.27106 1.08769C6.8587 1.08769 6.72568 1.22215 6.7259 1.62665C6.72657 3.01388 6.72613 4.4009 6.72214 5.78814C6.72191 5.9023 6.7514 5.94181 6.87378 5.93832C7.25554 5.92762 7.63753 5.92719 8.01952 5.92719C15.6464 5.92675 23.2735 5.92719 30.9004 5.92719C31.007 5.92719 31.1136 5.92719 31.2524 5.92719V5.92697ZM32.1767 38.9006C32.1767 38.4924 32.1849 38.0938 32.1722 37.6961C32.1678 37.5599 32.1374 37.4114 32.0738 37.292C31.8335 36.8415 31.4351 36.6555 30.9263 36.6555C22.9833 36.6564 15.04 36.6549 7.09703 36.6553C6.9782 36.6553 6.85848 36.6649 6.74076 36.6819C6.29337 36.7465 5.86837 37.1336 5.83069 37.5774C5.79388 38.0131 5.8227 38.4542 5.8227 38.9006H32.1769H32.1767ZM18.9725 35.5761C18.9725 35.5724 18.9725 35.5684 18.9725 35.5647C19.9872 35.5647 21.002 35.5625 22.0167 35.5671C22.1601 35.5678 22.2142 35.5304 22.2133 35.3798C22.2064 34.351 22.2047 33.322 22.2102 32.293C22.2111 32.1297 22.159 32.0863 21.9967 32.0865C19.997 32.0913 17.9973 32.0917 15.9978 32.0854C15.8224 32.0847 15.7763 32.1376 15.777 32.303C15.7818 33.3436 15.7794 34.3844 15.7745 35.425C15.7741 35.5411 15.8116 35.578 15.9284 35.5776C16.9431 35.5743 17.9578 35.5756 18.9725 35.5756V35.5761Z" fill="#3730A3"/>
<path d="M17.5135 14.57C17 14.5748 16.755 14.1212 16.988 13.7204C17.3669 13.0683 17.75 12.4187 18.1316 11.7682C18.7306 10.7466 19.3294 9.72478 19.9293 8.70383C19.9858 8.60735 20.043 8.50999 20.112 8.42224C20.2829 8.20504 20.5676 8.14567 20.7997 8.27053C21.0433 8.40172 21.1553 8.67175 21.0571 8.93282C21.0079 9.0638 20.9336 9.18647 20.862 9.30806C19.8903 10.9581 18.9168 12.6073 17.9442 14.2567C17.8316 14.4475 17.6737 14.5656 17.5135 14.5697V14.57Z" fill="#3730A3"/>
<path d="M22.6307 11.3818C22.2292 11.1548 21.8459 10.9439 21.4683 10.7232C21.1283 10.5246 21.0928 10.0958 21.3892 9.84676C21.5384 9.72146 21.71 9.69898 21.8929 9.7518C21.9552 9.7697 22.0155 9.79852 22.0718 9.83061C22.6961 10.1864 23.3229 10.5387 23.9423 10.9028C24.3965 11.1698 24.3897 11.6206 23.9305 11.8876C23.2889 12.2606 22.6433 12.6271 21.9973 12.9928C21.7455 13.1353 21.4318 13.0526 21.2766 12.8122C21.1201 12.5695 21.1684 12.2525 21.4174 12.096C21.7585 11.8817 22.1166 11.6931 22.4667 11.4922C22.5161 11.4639 22.5615 11.4285 22.6305 11.3818H22.6307Z" fill="#3730A3"/>
<path d="M15.3603 11.3916C15.7532 11.6193 16.1165 11.83 16.4799 12.041C16.6229 12.1242 16.7397 12.2296 16.7728 12.3993C16.814 12.611 16.7728 12.8005 16.5903 12.9349C16.4096 13.0681 16.207 13.1022 16.0028 12.9937C15.7514 12.8601 15.5073 12.7132 15.2599 12.5724C14.8577 12.3436 14.4522 12.1203 14.0536 11.8854C13.6111 11.6245 13.6042 11.1657 14.0428 10.9057C14.6702 10.5335 15.3033 10.1712 15.937 9.80924C16.1564 9.68394 16.3801 9.68198 16.5892 9.8398C16.7827 9.98584 16.8464 10.1902 16.7659 10.4036C16.7182 10.5298 16.6074 10.6549 16.4912 10.7293C16.1722 10.9339 15.8352 11.1109 15.5057 11.2995C15.4658 11.3224 15.4279 11.3486 15.3603 11.3916Z" fill="#3730A3"/>
<path d="M21.7895 21.0868C21.1148 21.0868 20.4404 21.0918 19.7658 21.0851C19.3235 21.0805 19.0552 20.7096 19.2169 20.3326C19.3228 20.0851 19.5372 19.9991 19.7957 19.9988C20.6852 19.9984 21.5746 19.9988 22.4641 19.9988C22.8999 19.9988 23.3358 19.9908 23.7712 20.0036C23.9022 20.0076 24.043 20.0486 24.1592 20.1095C24.3465 20.2075 24.4388 20.4494 24.3909 20.6596C24.3423 20.8724 24.2089 21.0143 23.9896 21.063C23.9034 21.0822 23.8122 21.0866 23.7233 21.0868C23.0786 21.0888 22.4339 21.0879 21.7892 21.0879V21.0872L21.7895 21.0868Z" fill="#3730A3"/>
<path d="M16.1927 18.9707C15.5369 18.9707 14.8809 18.9799 14.2255 18.9639C14.0703 18.9602 13.8945 18.9041 13.7686 18.8159C13.591 18.6915 13.5525 18.4861 13.6103 18.2752C13.6693 18.0602 13.8209 17.9406 14.0369 17.898C14.1063 17.8843 14.1788 17.8823 14.2499 17.8823C15.5555 17.8814 16.8611 17.8812 18.1669 17.8819C18.5045 17.8819 18.7211 18.027 18.7945 18.2966C18.877 18.5998 18.7025 18.8858 18.3906 18.9484C18.3039 18.9659 18.2132 18.9696 18.1243 18.9698C17.4805 18.9716 16.8367 18.9707 16.1927 18.9707Z" fill="#3730A3"/>
<path d="M10.6133 16.8524C9.9635 16.8524 9.31326 16.8607 8.66368 16.8465C8.50583 16.843 8.32803 16.7976 8.19767 16.7138C8.01544 16.5963 7.96711 16.3929 8.01898 16.1796C8.0713 15.9646 8.21319 15.8352 8.43112 15.7887C8.49453 15.7751 8.56059 15.7662 8.62533 15.766C9.94887 15.7647 11.2726 15.764 12.5962 15.7655C12.9356 15.766 13.1542 15.9293 13.2118 16.215C13.2684 16.4953 13.0797 16.7782 12.7937 16.8341C12.7126 16.8498 12.6281 16.8528 12.545 16.8531C11.9009 16.8546 11.2571 16.8539 10.6131 16.8539V16.8524H10.6133Z" fill="#3730A3"/>
<path d="M27.3621 18.97C26.6939 18.97 26.0257 18.9733 25.3577 18.9687C25.019 18.9663 24.8013 18.7867 24.7658 18.4992C24.725 18.1674 24.9782 17.8919 25.3455 17.8838C25.6974 17.8759 26.0494 17.8816 26.4015 17.8816C27.3858 17.8816 28.3702 17.8801 29.3545 17.8823C29.7928 17.8831 30.065 18.2014 29.9566 18.5775C29.8857 18.8231 29.6753 18.9678 29.3667 18.9691C28.6985 18.9722 28.0303 18.97 27.3623 18.97H27.3621Z" fill="#3730A3"/>
<path d="M10.2513 19.9984C10.794 19.9984 11.3367 19.9984 11.8795 19.9984C12.0814 19.9984 12.2548 20.0641 12.3809 20.2234C12.6177 20.5222 12.4528 20.9774 12.0768 21.0616C11.9963 21.0798 11.9116 21.0861 11.8289 21.0863C10.7734 21.0878 9.71768 21.0922 8.6624 21.0822C8.51009 21.0806 8.33694 21.04 8.21146 20.9597C8.00617 20.8285 7.95496 20.5709 8.03787 20.3443C8.11369 20.1372 8.31167 20.0021 8.56995 19.9999C9.1304 19.9955 9.69108 19.9986 10.2518 19.9981L10.2513 19.9984Z" fill="#3730A3"/>
<path d="M10.1471 17.883C10.6661 17.883 11.1851 17.8777 11.704 17.8847C12.0517 17.8893 12.2915 18.1126 12.2991 18.4169C12.3051 18.6616 12.1244 18.8919 11.8799 18.9386C11.775 18.9587 11.6668 18.9685 11.5599 18.9687C10.5876 18.9711 9.6152 18.9692 8.64283 18.9711C8.37768 18.9718 8.15909 18.8969 8.04713 18.6391C7.88307 18.2617 8.14822 17.8884 8.59007 17.8832C9.10907 17.8771 9.62806 17.8817 10.1471 17.8817V17.8827V17.883Z" fill="#3730A3"/>
<path d="M21.2843 17.8816C21.7855 17.8816 22.287 17.8777 22.7883 17.8829C23.1986 17.8873 23.4616 18.206 23.3656 18.571C23.2999 18.8203 23.094 18.9667 22.7832 18.9689C22.2103 18.9731 21.6372 18.9702 21.0643 18.9702C20.6287 18.9702 20.1928 18.9768 19.7574 18.9676C19.3171 18.9584 19.0531 18.583 19.2163 18.2084C19.3216 17.9667 19.5293 17.8829 19.7805 17.882C20.2817 17.8805 20.7832 17.8816 21.2845 17.8816H21.2843Z" fill="#3730A3"/>
<path d="M15.6397 21.087C15.1569 21.087 14.674 21.087 14.1911 21.087C13.9369 21.087 13.7353 20.9951 13.6322 20.7547C13.4669 20.3688 13.7391 20.0016 14.1954 19.9995C14.9822 19.9957 15.7692 19.9984 16.5562 19.9984C16.7529 19.9984 16.95 19.9925 17.1464 20.0014C17.4262 20.0141 17.6261 20.1745 17.6964 20.4271C17.7501 20.6201 17.6663 20.8713 17.4756 20.9798C17.3632 21.0438 17.2193 21.0791 17.0885 21.0824C16.6059 21.0942 16.1228 21.087 15.6399 21.0868L15.6397 21.087Z" fill="#3730A3"/>
<path d="M26.7684 19.9984C27.2098 19.9984 27.651 19.9968 28.0922 19.9997C28.1806 20.0003 28.2718 20.008 28.3569 20.0298C28.6116 20.0951 28.779 20.314 28.7712 20.5581C28.7635 20.7997 28.5624 21.0184 28.303 21.0625C28.227 21.0754 28.1492 21.0852 28.0722 21.0855C27.1717 21.0872 26.2714 21.0889 25.3708 21.0859C25.0168 21.0846 24.7867 20.8925 24.7625 20.5939C24.7348 20.2511 24.9669 20.0047 25.3371 19.9999C25.8142 19.9938 26.2913 19.9984 26.7684 19.9982V19.9984Z" fill="#3730A3"/>
<path d="M28.0893 15.7651C28.5245 15.7651 28.9597 15.7616 29.3947 15.7664C29.6549 15.7692 29.8684 15.9122 29.9449 16.1183C30.0292 16.3453 29.974 16.5874 29.7678 16.7319C29.6685 16.8015 29.5281 16.8463 29.4058 16.8476C28.5535 16.8568 27.7009 16.8581 26.8487 16.8487C26.3915 16.8437 26.1483 16.5734 26.225 16.1899C26.2774 15.9288 26.4882 15.769 26.8015 15.7662C27.2307 15.762 27.6599 15.7651 28.0891 15.7651H28.0893Z" fill="#3730A3"/>
<path d="M21.8086 16.8506C21.385 16.8506 20.9613 16.857 20.5379 16.8487C20.188 16.8417 19.9847 16.6978 19.9251 16.4409C19.838 16.0652 20.0905 15.7692 20.5128 15.7664C21.199 15.7616 21.8851 15.7651 22.5713 15.7651C22.7442 15.7651 22.918 15.7555 23.0903 15.7679C23.3313 15.7852 23.5277 15.8838 23.6188 16.1222C23.7055 16.3488 23.6576 16.58 23.4563 16.7221C23.3483 16.7982 23.1958 16.8423 23.0615 16.8476C22.6445 16.8633 22.2263 16.8533 21.8089 16.8533C21.8089 16.8524 21.8089 16.8517 21.8089 16.8509L21.8086 16.8506Z" fill="#3730A3"/>
<path d="M16.9602 15.7648C17.3776 15.7648 17.7953 15.7598 18.2128 15.7664C18.6331 15.7729 18.8952 16.1038 18.7817 16.4719C18.7129 16.695 18.532 16.8467 18.2782 16.8484C17.4193 16.8545 16.5602 16.8521 15.7014 16.8454C15.4537 16.8434 15.2507 16.7524 15.1465 16.5048C15.0616 16.3036 15.0937 16.1255 15.2294 15.9622C15.352 15.8144 15.5225 15.7666 15.7076 15.7655C16.125 15.7631 16.5427 15.7646 16.9602 15.7648Z" fill="#3730A3"/>
<path d="M18.9872 29.0263C19.261 29.0263 19.5359 29.0129 19.8086 29.0302C20.0675 29.0466 20.2533 29.2138 20.3114 29.4388C20.371 29.6702 20.2923 29.8885 20.0802 30.0179C19.9981 30.0679 19.8917 30.1035 19.7962 30.1042C19.2543 30.1074 18.7123 30.1083 18.1709 30.0891C17.8689 30.0784 17.6648 29.8457 17.6601 29.5587C17.6557 29.2812 17.849 29.0531 18.1485 29.03C18.4265 29.0086 18.7074 29.0254 18.9872 29.0254C18.9872 29.0256 18.9872 29.026 18.9872 29.0263Z" fill="#3730A3"/>
<path d="M9.29257 1.67335C10.2871 1.66091 11.1526 2.5022 11.1657 3.49412C11.1786 4.46878 10.3139 5.3378 9.32205 5.3474C8.31155 5.35722 7.44404 4.51702 7.43429 3.51944C7.42453 2.51465 8.25834 1.68645 9.29257 1.67335ZM10.043 3.51049C10.0412 3.09399 9.71512 2.76721 9.30276 2.76874C8.8689 2.77026 8.54212 3.07849 8.54056 3.48757C8.53901 3.9104 8.88375 4.24765 9.31185 4.24242C9.72266 4.23739 10.0448 3.91498 10.043 3.51049Z" fill="#3730A3"/>
<path d="M14.41 1.67418C15.3962 1.65606 16.2603 2.48011 16.2774 3.45521C16.2954 4.46634 15.4529 5.33273 14.4378 5.34801C13.4596 5.36264 12.5664 4.49843 12.554 3.52572C12.5411 2.52442 13.3745 1.69317 14.41 1.67418ZM14.422 4.23975C14.8384 4.2439 15.1685 3.92148 15.1736 3.50586C15.1784 3.09525 14.8623 2.77022 14.4522 2.76411C14.0172 2.75756 13.6833 3.07452 13.6807 3.49647C13.678 3.91319 13.9997 4.23582 14.422 4.23997V4.23975Z" fill="#3730A3"/>
<path d="M21.4013 3.49628C21.4055 4.4847 20.5524 5.34193 19.559 5.34782C18.5709 5.35372 17.6896 4.48383 17.6839 3.49738C17.6781 2.50634 18.5181 1.68316 19.5455 1.67312C20.556 1.6633 21.3973 2.48953 21.4013 3.49628ZM19.5377 4.23847C19.9585 4.24611 20.2908 3.92784 20.2953 3.51331C20.2995 3.10576 19.9949 2.78138 19.5962 2.76916C19.1382 2.75519 18.8145 3.04988 18.8034 3.49104C18.793 3.90361 19.1143 4.23061 19.5379 4.23847H19.5377Z" fill="#3730A3"/>
<path d="M26.8195 4.05115C25.8653 4.05115 24.9113 4.05224 23.9571 4.05049C23.6494 4.05006 23.4399 3.91166 23.361 3.6663C23.2612 3.35633 23.4455 3.04701 23.7698 2.99004C23.8747 2.9717 23.9828 2.96406 24.0897 2.96406C25.9502 2.96188 27.8107 2.96144 29.6712 2.96166C29.8512 2.96166 30.0334 2.96646 30.17 3.10726C30.3299 3.27185 30.4017 3.46242 30.3152 3.68704C30.2279 3.91362 30.0113 4.05049 29.7357 4.05071C28.7638 4.05202 27.7916 4.05115 26.8197 4.05137L26.8195 4.05115Z" fill="#3730A3"/>
</svg>
